<?xml version="1.0" standalone="no"?>
<!DOCTYPE svg PUBLIC "-//W3C//DTD SVG 20010904//EN"
 "http://www.w3.org/TR/2001/REC-SVG-20010904/DTD/svg10.dtd">
<svg version="1.0" xmlns="http://www.w3.org/2000/svg"
 width="1920.000000pt" height="1080.000000pt" viewBox="0 0 1920.000000 1080.000000"
 preserveAspectRatio="xMidYMid meet">

<g transform="translate(0.000000,1080.000000) scale(0.100000,-0.100000)"
fill="#000000" stroke="none">
<path d="M9360 9094 c-404 -49 -799 -219 -1107 -475 -390 -326 -640 -754 -734
-1259 -21 -109 -24 -156 -24 -365 0 -253 11 -342 66 -545 159 -583 566 -1073
1114 -1340 1045 -511 2302 -80 2821 965 77 154 143 353 181 543 25 126 27 156
27 377 1 188 -3 261 -17 335 -100 535 -342 956 -740 1289 -263 219 -596 378
-939 447 -119 24 -158 27 -373 29 -132 2 -256 1 -275 -1z m560 -263 c342 -63
621 -194 893 -421 444 -371 697 -974 648 -1551 -21 -250 -76 -449 -186 -674
-166 -339 -427 -616 -755 -801 -280 -159 -536 -230 -860 -241 -653 -22 -1254
289 -1625 842 -61 92 -166 307 -204 420 -190 562 -100 1175 245 1667 242 344
626 611 1035 721 83 23 222 48 329 61 82 10 379 -4 480 -23z"/>
<path d="M9410 8614 c-14 -2 -65 -11 -115 -20 -173 -30 -429 -131 -571 -225
-182 -121 -360 -295 -474 -465 -432 -644 -354 -1490 188 -2037 251 -255 581
-425 917 -472 119 -17 362 -19 472 -4 493 67 952 381 1195 819 313 563 266
1248 -121 1765 -98 131 -273 293 -425 394 -82 54 -243 130 -354 168 -183 61
-264 74 -487 78 -110 2 -211 1 -225 -1z m348 -244 c528 -57 986 -430 1156
-941 50 -149 69 -270 69 -429 0 -508 -271 -963 -723 -1213 -93 -51 -207 -95
-340 -130 -110 -29 -123 -30 -320 -30 -197 0 -210 1 -320 30 -381 101 -673
314 -867 633 -146 241 -224 569 -194 817 43 352 236 635 544 798 150 80 295
115 472 115 219 0 381 -50 570 -175 131 -87 245 -212 324 -356 83 -152 121
-303 121 -479 0 -139 -12 -194 -65 -305 -89 -186 -261 -323 -459 -365 -65 -14
-217 -14 -286 0 -30 7 -97 32 -149 57 -177 85 -312 254 -357 448 -24 106 -16
237 18 297 33 54 87 104 142 129 56 25 176 25 232 0 98 -45 158 -127 174 -241
12 -88 29 -116 77 -137 68 -28 143 6 164 76 16 53 -4 169 -42 251 -71 153
-175 244 -344 301 -24 8 -83 14 -145 14 -84 0 -119 -5 -173 -24 -234 -80 -383
-312 -362 -566 21 -253 108 -441 285 -614 205 -200 522 -292 802 -232 353 74
615 324 710 675 19 68 22 107 22 241 0 138 -4 174 -27 265 -63 257 -162 434
-342 616 -185 186 -380 290 -660 351 -59 13 -125 18 -247 18 -92 0 -162 3
-155 6 7 4 53 21 104 37 189 64 384 84 591 62z"/>
<path d="M8112 3858 l3 -703 123 -3 122 -3 0 706 0 705 -125 0 -125 0 2 -702z"/>
<path d="M8519 4539 c-16 -31 -8 -177 11 -189 22 -14 204 -12 218 2 7 7 12 44
12 98 0 54 -5 91 -12 98 -8 8 -48 12 -115 12 -94 0 -103 -2 -114 -21z"/>
<path d="M11162 3858 l3 -703 120 0 120 0 3 703 2 702 -125 0 -125 0 2 -702z"/>
<path d="M11562 3858 l3 -703 123 -3 122 -3 0 706 0 705 -125 0 -125 0 2 -702z"/>
<path d="M7400 4234 c-197 -38 -318 -146 -386 -344 -29 -85 -27 -329 3 -425
59 -187 191 -296 394 -324 196 -27 390 57 481 209 58 97 70 146 75 306 5 122
2 151 -16 218 -29 104 -53 149 -117 216 -58 61 -123 101 -201 126 -50 15 -190
26 -233 18z m138 -245 c65 -13 122 -63 153 -131 21 -47 24 -68 24 -179 0 -120
-1 -128 -30 -184 -43 -84 -94 -118 -185 -123 -82 -5 -124 7 -169 50 -50 47
-80 122 -88 216 -14 186 53 323 173 351 54 12 66 13 122 0z"/>
<path d="M10455 4234 c-92 -22 -117 -31 -169 -58 -114 -59 -194 -167 -231
-311 -20 -78 -20 -279 0 -363 54 -228 230 -365 470 -365 252 0 427 139 481
380 22 101 15 302 -14 383 -59 167 -147 258 -300 311 -55 19 -196 33 -237 23z
m185 -263 c42 -22 95 -88 110 -139 21 -70 24 -202 6 -272 -20 -78 -47 -121
-100 -158 -36 -24 -48 -27 -127 -27 -81 0 -90 2 -131 30 -28 21 -53 50 -73 90
-29 56 -30 64 -30 184 0 111 3 132 24 179 29 64 89 118 145 131 53 13 132 5
176 -18z"/>
<path d="M12299 4225 c-142 -28 -262 -122 -294 -228 -46 -156 15 -289 166
-359 72 -34 129 -45 281 -58 132 -10 202 -30 218 -61 6 -10 10 -36 10 -58 0
-31 -6 -44 -26 -60 -38 -30 -125 -44 -239 -39 -139 7 -208 44 -224 120 l-7 33
-119 3 c-65 1 -122 -1 -126 -5 -4 -4 -3 -35 2 -67 32 -201 211 -311 499 -309
204 1 307 32 400 119 65 61 93 127 94 224 1 94 -14 137 -66 190 -75 78 -208
120 -380 120 -127 0 -194 15 -230 50 -34 34 -35 66 -5 111 32 49 99 71 199 65
111 -6 155 -37 182 -129 5 -16 18 -17 123 -15 l118 3 3 41 c5 69 -31 145 -98
208 -110 101 -290 139 -481 101z"/>
<path d="M6484 4189 c-67 -25 -136 -87 -166 -147 -23 -47 -23 -47 -23 -467 l0
-420 123 -3 122 -3 0 366 0 365 34 38 34 37 131 3 131 4 0 124 0 124 -167 -1
c-143 0 -176 -3 -219 -20z"/>
<path d="M8512 3683 l3 -528 123 -3 122 -3 0 531 0 530 -125 0 -125 0 2 -527z"/>
<path d="M9534 4189 c-64 -24 -137 -87 -167 -143 -22 -40 -22 -49 -25 -469
l-3 -428 123 3 123 3 5 365 c3 201 9 373 13 382 5 10 24 27 42 38 28 17 49 20
154 20 l121 0 0 125 0 125 -167 -1 c-143 0 -176 -3 -219 -20z"/>
<path d="M7625 2807 c-51 -77 -51 -77 -23 -77 15 0 42 19 76 53 l52 53 -33 16
-33 16 -39 -61z"/>
<path d="M8300 2499 l0 -370 23 3 c18 2 23 11 27 51 l5 47 29 -30 c58 -63 137
-87 221 -70 115 24 196 126 197 251 1 88 -15 138 -62 191 -54 62 -125 92 -201
85 -67 -6 -101 -22 -151 -73 l-38 -37 0 161 0 162 -25 0 -25 0 0 -371z m325
92 c160 -72 167 -317 11 -398 -66 -34 -177 -11 -233 49 -73 77 -70 222 5 302
58 62 144 81 217 47z"/>
<path d="M12112 2503 l3 -368 25 0 25 0 0 365 0 365 -28 3 -27 3 2 -368z"/>
<path d="M12362 2503 l3 -368 23 -3 22 -3 0 370 0 371 -25 0 -25 0 2 -367z"/>
<path d="M6290 2651 c-78 -24 -136 -79 -165 -155 -27 -69 -17 -188 19 -250 35
-60 93 -102 162 -116 83 -18 159 7 219 70 l30 31 5 -128 5 -128 25 0 25 0 3
338 2 338 -27 -3 c-26 -3 -28 -7 -31 -51 l-3 -47 -27 31 c-52 62 -162 94 -242
70z m145 -60 c84 -38 128 -108 128 -201 1 -206 -255 -293 -363 -124 -113 179
53 409 235 325z"/>
<path d="M7542 2647 c-49 -18 -98 -62 -129 -115 -25 -42 -28 -56 -28 -142 0
-86 3 -100 28 -142 71 -122 233 -159 362 -84 57 34 71 52 55 71 -17 21 -26 19
-68 -15 -48 -38 -125 -55 -181 -40 -70 19 -123 78 -142 158 l-7 32 214 0 215
0 -7 53 c-22 175 -164 277 -312 224z m141 -51 c44 -19 83 -63 102 -115 8 -24
15 -47 15 -52 0 -5 -83 -9 -185 -9 l-184 0 13 44 c19 62 49 100 98 125 50 24
95 27 141 7z"/>
<path d="M9693 2643 c-57 -20 -126 -97 -144 -160 -29 -105 -3 -226 64 -291 93
-90 257 -88 361 4 27 24 28 26 10 39 -24 18 -29 18 -45 -1 -18 -22 -77 -50
-121 -58 -98 -18 -200 56 -223 162 l-7 32 211 0 211 0 0 43 c0 174 -156 288
-317 230z m174 -59 c39 -29 62 -64 78 -117 l14 -47 -184 0 c-141 0 -185 3
-185 13 0 21 46 111 66 129 59 52 157 62 211 22z"/>
<path d="M10313 2649 c-18 -5 -48 -24 -67 -42 l-35 -33 -3 35 c-3 31 -7 36
-31 39 l-27 3 2 -258 3 -258 25 0 25 0 5 180 c6 209 14 234 90 273 87 44 176
20 217 -58 21 -40 23 -55 23 -222 l0 -178 26 0 25 0 -3 203 c-3 190 -4 204
-26 239 -44 70 -154 104 -249 77z"/>
<path d="M11290 2651 c-65 -13 -127 -59 -158 -116 -9 -16 -11 -7 -12 48 0 65
-1 67 -25 67 l-25 0 0 -261 0 -260 23 3 c21 3 22 7 27 153 5 128 9 156 27 191
31 57 82 99 142 115 46 12 51 15 51 41 0 15 -3 27 -7 27 -5 -1 -24 -4 -43 -8z"/>
<path d="M11604 2644 c-91 -32 -160 -124 -171 -227 -7 -66 9 -122 50 -183 111
-164 368 -138 451 46 30 67 28 170 -4 234 -60 118 -200 174 -326 130z m176
-56 c120 -61 158 -224 77 -330 -116 -151 -347 -82 -364 109 -7 73 8 122 50
170 63 72 156 91 237 51z"/>
<path d="M12736 2640 c-95 -37 -155 -120 -164 -226 -12 -159 98 -285 251 -287
81 -1 130 16 185 67 60 55 84 110 84 197 2 194 -177 319 -356 249z m207 -66
c27 -19 52 -49 70 -84 24 -47 28 -63 24 -113 -15 -177 -199 -264 -332 -155
-50 42 -75 98 -75 173 0 170 179 272 313 179z"/>
<path d="M6790 2473 c0 -99 5 -196 11 -218 25 -90 128 -146 234 -126 46 9 125
53 125 71 0 6 5 10 10 10 6 0 10 -18 10 -41 0 -36 2 -40 23 -37 l22 3 3 258 2
257 -24 0 -24 0 -4 -172 c-3 -199 -13 -231 -81 -276 -32 -21 -53 -27 -98 -27
-70 0 -104 21 -136 85 -21 41 -23 58 -23 217 l0 173 -25 0 -25 0 0 -177z"/>
<path d="M8950 2461 c0 -202 5 -228 48 -274 43 -46 80 -61 152 -60 71 0 110
15 150 58 l25 27 5 -39 c4 -33 9 -38 30 -38 l25 0 3 258 2 258 -27 -3 -28 -3
-5 -180 c-6 -200 -8 -210 -76 -262 -48 -36 -137 -40 -180 -7 -66 49 -69 58
-72 265 l-3 189 -25 0 -24 0 0 -189z"/>
</g>
</svg>
